<svg width="512" height="512" viewBox="0 0 512 512" fill="none" xmlns="http://www.w3.org/2000/svg">
  <!-- Background gradient -->
  <defs>
    <linearGradient id="bg" x1="0%" y1="0%" x2="100%" y2="100%">
      <stop offset="0%" style="stop-color:#6366f1;stop-opacity:1" />
      <stop offset="100%" style="stop-color:#8b5cf6;stop-opacity:1" />
    </linearGradient>
  </defs>
  
  <!-- Background circle -->
  <circle cx="256" cy="256" r="240" fill="url(#bg)"/>
  
  <!-- Brain icon (scaled up) -->
  <g transform="translate(256,256) scale(8,8) translate(-12,-12)">
    <path d="M12 5a3 3 0 1 0-5.997.125 4 4 0 0 0-2.526 5.77 4 4 0 0 0 .556 6.588A4 4 0 1 0 12 18Z" 
          fill="white" stroke="white" stroke-width="0.5"/>
    <path d="M12 5a3 3 0 1 1 5.997.125 4 4 0 0 1 2.526 5.77 4 4 0 0 1-.556 6.588A4 4 0 1 1 12 18Z" 
          fill="white" stroke="white" stroke-width="0.5"/>
    <path d="M15 13a4.5 4.5 0 0 1-3-4 4.5 4.5 0 0 1-3 4" 
          fill="none" stroke="white" stroke-width="0.5"/>
    <path d="M17.599 6.5a3 3 0 0 0 .399-1.375" 
          fill="none" stroke="white" stroke-width="0.5"/>
    <path d="M6.003 5.125A3 3 0 0 0 6.401 6.5" 
          fill="none" stroke="white" stroke-width="0.5"/>
    <path d="M3.477 10.896a4 4 0 0 1 .585-.396" 
          fill="none" stroke="white" stroke-width="0.5"/>
    <path d="M19.938 10.5a4 4 0 0 1 .585.396" 
          fill="none" stroke="white" stroke-width="0.5"/>
    <path d="M6 18a4 4 0 0 1-1.967-.516" 
          fill="none" stroke="white" stroke-width="0.5"/>
    <path d="M19.967 17.484A4 4 0 0 1 18 18" 
          fill="none" stroke="white" stroke-width="0.5"/>
  </g>
</svg>
